<?xml version="1.0" encoding="UTF-8"?>
<svg version="1.1" xmlns="http://www.w3.org/2000/svg" width="400" height="225">
<path d="M0 0 C10.89 0 21.78 0 33 0 C38.3125 9.6875 38.3125 9.6875 39.9699707 12.71362305 C40.40913818 13.51324463 40.84830566 14.31286621 41.30078125 15.13671875 C41.74591064 15.94842529 42.19104004 16.76013184 42.6496582 17.59643555 C44.052906 20.09417096 45.51487683 22.55021402 47 25 C47.58007812 24.03320312 48.16015625 23.06640625 48.7578125 22.0703125 C53.4453125 14.2578125 53.4453125 14.2578125 54.72509766 12.22900391 C56.08505315 9.97593114 56.08505315 9.97593114 57.06787109 7.28271484 C58.42196822 4.21215657 59.50333783 2.2618524 62 0 C67.50110666 -1.25569579 72.77592088 -0.94692579 78.375 -0.625 C79.8891765 -0.57479736 81.40351231 -0.52917714 82.91796875 -0.48828125 C86.61530676 -0.37848286 90.30664018 -0.20620889 94 0 C92.39619805 4.1201119 90.49364409 7.92831916 88.375 11.8125 C88.05015625 12.40998047 87.7253125 13.00746094 87.390625 13.62304688 C86.59620849 15.08337135 85.79844624 16.54187491 85 18 C85.99966797 17.58427734 85.99966797 17.58427734 87.01953125 17.16015625 C97.78430421 12.9295252 107.73738801 11.8112828 119 15 C124.88052767 17.63808337 129.02606118 21.26257908 132.0625 27.01171875 C133.44020828 31.40316388 133.46969462 35.7342268 133.625 40.3125 C133.66367187 41.24384766 133.70234375 42.17519531 133.7421875 43.13476562 C133.83606313 45.42298407 133.92174509 47.71120295 134 50 C135.32 50.66 136.64 51.32 138 52 C138.02684312 54.81256281 138.04676188 57.62487241 138.0625 60.4375 C138.07087891 61.23994141 138.07925781 62.04238281 138.08789062 62.86914062 C138.0965143 64.91295221 138.0522815 66.95683902 138 69 C136.03039628 70.96960372 132.42904385 70.2746604 129.75 70.3125 C128.74646484 70.35600586 128.74646484 70.35600586 127.72265625 70.40039062 C124.1441323 70.44608887 122.17685082 70.11331016 119.140625 68.16796875 C117 66 117 66 115 63 C113.63875 64.175625 113.63875 64.175625 112.25 65.375 C106.64429142 70.21629377 101.89669607 70.55226953 94.5625 70.4453125 C89.210847 69.77635588 85.79954983 67.75617598 82 64 C78.59017135 59.55688994 78.48281259 55.05692644 78.65234375 49.6171875 C79.33310569 44.4923504 82.24166417 41.55428733 85.9375 38.25 C91.30360625 34.30755459 95.62149658 33.69960039 102.1875 33.8125 C102.91130859 33.81314453 103.63511719 33.81378906 104.38085938 33.81445312 C109.71827696 33.85913848 109.71827696 33.85913848 112 35 C111.67 33.02 111.34 31.04 111 29 C101.4447465 28.30647354 94.55349305 29.68472423 86 34 C84.02 29.05 84.02 29.05 82 24 C81.01 25.32 80.02 26.64 79 28 C75.90551758 28.54589844 75.90551758 28.54589844 72.14453125 28.609375 C71.48289474 28.62591125 70.82125824 28.64244751 70.13957214 28.65948486 C68.03045399 28.70799288 65.92205677 28.72933927 63.8125 28.75 C62.38082305 28.77815777 60.94917972 28.80808495 59.51757812 28.83984375 C56.01187607 28.91374893 52.50631125 28.96330788 49 29 C49.53705566 29.88486084 50.07411133 30.76972168 50.62744141 31.68139648 C56.4255913 41.25061156 62.02456671 50.9303934 67.59399414 60.63427734 C68.20621826 61.69984863 68.81844238 62.76541992 69.44921875 63.86328125 C70.04138184 64.89404785 70.63354492 65.92481445 71.24365234 66.98681641 C73.4174856 70.71623677 75.66723702 74.39623541 77.94458008 78.06323242 C79 80 79 80 79 82 C51.55854308 85.50775752 51.55854308 85.50775752 44.25683594 79.88916016 C40.00397774 74.63478542 37.30059144 68.69560337 35.02612305 62.36010742 C33.98761554 59.97151544 32.95795729 58.6824728 31 57 C30.72325439 57.50861572 30.44650879 58.01723145 30.16137695 58.54125977 C28.88307032 60.8842455 27.59783902 63.2233653 26.3125 65.5625 C25.65991211 66.76229492 25.65991211 66.76229492 24.99414062 67.98632812 C24.11470125 69.58234774 23.2125524 71.1660611 22.28833008 72.73657227 C20.97633783 74.93477377 20.97633783 74.93477377 20.1081543 77.13647461 C18.95702594 79.46559788 18.18780566 80.56495773 16 82 C10.70807136 82.86768983 5.51787774 82.65789119 0.1875 82.4375 C-1.28312943 82.40236551 -2.753839 82.37043018 -4.22460938 82.34179688 C-7.81807772 82.26487912 -11.40853107 82.14421661 -15 82 C-14.01088094 77.76641647 -12.22583401 74.73365704 -10 71 C-10.99580078 70.97873047 -10.99580078 70.97873047 -12.01171875 70.95703125 C-19.29162316 70.56381014 -19.29162316 70.56381014 -23.0625 67.5625 C-25 65 -25 65 -26 63 C-26.81404297 63.63228516 -26.81404297 63.63228516 -27.64453125 64.27734375 C-28.35996094 64.82519531 -29.07539063 65.37304688 -29.8125 65.9375 C-30.52019531 66.48277344 -31.22789062 67.02804688 -31.95703125 67.58984375 C-37.23321643 71.23172301 -43.86472906 70.52609207 -50 70 C-55.42853449 68.33917214 -58.77229763 64.46182386 -62 60 C-63.58935702 55.23192894 -64.05509789 50.49545974 -62.05859375 45.7734375 C-58.30140834 39.4839798 -54.13892194 35.93640141 -47 34 C-44.24305117 33.75322223 -41.5158382 33.76437644 -38.75 33.8125 C-38.03070313 33.81314453 -37.31140625 33.81378906 -36.5703125 33.81445312 C-31.28196429 33.85901786 -31.28196429 33.85901786 -29 35 C-30.11854586 31.27385847 -30.11854586 31.27385847 -33 29 C-40.36071665 28.15122171 -45.5074104 29.69395744 -52 33 C-53.485 33.495 -53.485 33.495 -55 34 C-55.86846831 32.25705322 -56.71930627 30.50531337 -57.5625 28.75 C-58.03816406 27.77546875 -58.51382813 26.8009375 -59.00390625 25.796875 C-60 23 -60 23 -60.01953125 20.80859375 C-57.52556303 16.3844279 -50.57513094 15.35185787 -46 14 C-37.06533834 12.11392798 -28.07685844 13.06156314 -19.5625 16.3125 C-13.91077925 20.03436488 -10.19122979 24.44933079 -8.45703125 31.07421875 C-7.7960173 35.30583796 -7.63197236 39.53729614 -7.4375 43.8125 C-7.39431641 44.69615234 -7.35113281 45.57980469 -7.30664062 46.49023438 C-7.20108464 48.65999623 -7.10008929 50.8299791 -7 53 C-6.01 53.33 -5.02 53.66 -4 54 C-3.3125 56.0625 -3.3125 56.0625 -3 58 C-2.47889648 57.1850708 -1.95779297 56.3701416 -1.42089844 55.53051758 C1 53 1 53 4.11621094 52.43237305 C5.31020508 52.45855713 6.50419922 52.48474121 7.734375 52.51171875 C9.67763672 52.53588867 9.67763672 52.53588867 11.66015625 52.56054688 C13.02345428 52.60232061 14.38673552 52.6446453 15.75 52.6875 C17.12886624 52.7125909 18.50777597 52.73540271 19.88671875 52.75585938 C23.25891356 52.81481383 26.62890741 52.89706829 30 53 C29.62415771 52.34854004 29.24831543 51.69708008 28.86108398 51.02587891 C28.32813721 50.10210449 27.79519043 49.17833008 27.24609375 48.2265625 C26.64547119 47.18556396 26.04484863 46.14456543 25.42602539 45.07202148 C24.09029458 42.75659075 22.75480164 40.44102469 21.41967773 38.12524414 C18.1966243 32.53562001 14.97140467 26.94730406 11.73454285 21.36566162 C10.34378585 18.96718814 8.95456642 16.56782583 7.56546021 14.168396 C6.56979964 12.45009763 5.57189512 10.73310015 4.57397461 9.01611328 C3.97335205 7.97825684 3.37272949 6.94040039 2.75390625 5.87109375 C2.22095947 4.95255615 1.6880127 4.03401855 1.13891602 3.08764648 C0 1 0 1 0 0 Z M99 47 C97.92424122 49.95361173 97.92424122 49.95361173 98 53 C99.98827671 55.42026227 99.98827671 55.42026227 103.875 55.3125 C106.55738885 55.2295898 108.01242088 54.99441061 110.5 53.875 C112.60705132 51.24118585 112.29101222 49.27388743 112 46 C105.21735504 44.64389312 105.21735504 44.64389312 99 47 Z M-42 47 C-43.35618499 48.12534105 -43.35618499 48.12534105 -43.0625 51.0625 C-43.041875 52.031875 -43.02125 53.00125 -43 54 C-39.93570224 55.53214888 -37.3834358 55.22938548 -34 55 C-31.01658383 54.06150487 -31.01658383 54.06150487 -29 52 C-28.58253392 48.87364791 -28.58253392 48.87364791 -29 46 C-35.69441894 44.80937124 -35.69441894 44.80937124 -42 47 Z " fill="#15709C" transform="translate(164,70)"/>
<path d="M0 0 C6.93 0 13.86 0 21 0 C21.33 18.48 21.66 36.96 22 56 C23.32 56.66 24.64 57.32 26 58 C26.02684312 60.81256281 26.04676188 63.62487241 26.0625 66.4375 C26.07087891 67.23994141 26.07925781 68.04238281 26.08789062 68.86914062 C26.0965143 70.91295221 26.0522815 72.95683902 26 75 C23.69207133 77.30792867 18.91841353 76.42073636 15.80834961 76.47070312 C11.48050343 76.39193021 8.82783818 75.87322718 5.5625 73 C4.716875 72.01 3.87125 71.02 3 70 C2.52949219 70.34933594 2.05898437 70.69867188 1.57421875 71.05859375 C0.95160156 71.51363281 0.32898438 71.96867187 -0.3125 72.4375 C-0.92738281 72.88996094 -1.54226562 73.34242188 -2.17578125 73.80859375 C-7.63822457 77.37614239 -14.77019486 76.59040637 -21 76 C-28.99437419 73.43120253 -33.96126624 67.73767856 -37.875 60.5625 C-40.71856395 51.82748019 -40.2640372 40.37023179 -36.33203125 32.1171875 C-32.04952868 25.31039456 -26.52755314 21.1105319 -18.6875 19.1875 C-11.09952134 18.80167058 -6.99158441 20.20673247 -1 25 C-0.67 16.75 -0.34 8.5 0 0 Z M-17 42 C-18.59689041 45.19378082 -18.37348957 48.52521315 -18 52 C-16.76270374 54.84578139 -15.7018305 56.42813811 -13.3125 58.375 C-9.82995648 59.31622798 -6.44736358 59.05473752 -3 58 C-1.17660945 56.89050653 -1.17660945 56.89050653 0 55 C0.83511403 49.71846803 0.78705203 44.67248556 -1.5 39.8125 C-7.60253788 35.38816003 -12.35094364 35.94213868 -17 42 Z " fill="#126997" transform="translate(72,64)"/>
<path d="M0 0 C7.57423446 8.03869224 9.57600324 15.68592167 9.2734375 26.6015625 C8.51995732 35.96624471 4.84642322 41.61617295 -2 48 C-7.50442576 52.22432675 -14.35387113 51.64181168 -21 51 C-24.56108467 49.67213792 -26.35513566 48.64486434 -29 46 C-29.33 54.58 -29.66 63.16 -30 72 C-36.93 72 -43.86 72 -51 72 C-51 46.92 -51 21.84 -51 -4 C-45.06 -4 -39.12 -4 -33 -4 C-32.67 -2.35 -32.34 -0.7 -32 1 C-31.195625 0.21625 -30.39125 -0.5675 -29.5625 -1.375 C-21.08597779 -8.34282036 -8.22486257 -6.81373419 0 0 Z M-30 16 C-30.6021584 21.60867541 -31.06800089 26.39799867 -27.875 31.1875 C-24.67612382 33.20418281 -22.78358432 34 -19 34 C-15.16408702 32.34358303 -13.55722266 30.81726264 -12 27 C-11.31818419 22.56819724 -11.4854328 19.0291344 -13.5 15 C-18.97615272 10.61907782 -24.97707722 10.97707722 -30 16 Z " fill="#126997" transform="translate(358,89)"/>
<path d="M0 0 C5.88750348 6.19737208 6.34714178 12.12147108 6.625 20.3125 C6.68300781 21.70952148 6.68300781 21.70952148 6.7421875 23.13476562 C6.83606313 25.42298407 6.92174509 27.71120295 7 30 C8.32 30.66 9.64 31.32 11 32 C11.02684312 34.81256281 11.04676188 37.62487241 11.0625 40.4375 C11.07087891 41.23994141 11.07925781 42.04238281 11.08789062 42.86914062 C11.0965143 44.91295221 11.0522815 46.95683902 11 49 C9.03039628 50.96960372 5.42904385 50.2746604 2.75 50.3125 C2.08097656 50.34150391 1.41195312 50.37050781 0.72265625 50.40039062 C-2.8558677 50.44608887 -4.82314918 50.11331016 -7.859375 48.16796875 C-10 46 -10 46 -12 43 C-12.9075 43.78375 -13.815 44.5675 -14.75 45.375 C-20.35570858 50.21629377 -25.10330393 50.55226953 -32.4375 50.4453125 C-37.789153 49.77635588 -41.20045017 47.75617598 -45 44 C-48.40982865 39.55688994 -48.51718741 35.05692644 -48.34765625 29.6171875 C-47.66689431 24.4923504 -44.75833583 21.55428733 -41.0625 18.25 C-35.69639375 14.30755459 -31.37850342 13.69960039 -24.8125 13.8125 C-24.08869141 13.81314453 -23.36488281 13.81378906 -22.61914062 13.81445312 C-17.28172304 13.85913848 -17.28172304 13.85913848 -15 15 C-15.495 12.03 -15.495 12.03 -16 9 C-25.5552535 8.30647354 -32.44650695 9.68472423 -41 14 C-41.70365602 12.4447088 -42.38729378 10.88035173 -43.0625 9.3125 C-43.44535156 8.44238281 -43.82820312 7.57226562 -44.22265625 6.67578125 C-45.11671634 3.59823771 -45.11276572 1.99786198 -44 -1 C-32.8041366 -9.99473492 -10.57643293 -9.26773289 0 0 Z M-28 27 C-29.07575878 29.95361173 -29.07575878 29.95361173 -29 33 C-27.01172329 35.42026227 -27.01172329 35.42026227 -23.125 35.3125 C-20.44261115 35.2295898 -18.98757912 34.99441061 -16.5 33.875 C-14.39294868 31.24118585 -14.70898778 29.27388743 -15 26 C-21.78264496 24.64389312 -21.78264496 24.64389312 -28 27 Z " fill="#126997" transform="translate(291,90)"/>
<path d="M0 0 C5.88484717 7.26951709 6.27999708 14.47911604 6.6875 23.4375 C6.73068359 24.32115234 6.77386719 25.20480469 6.81835938 26.11523438 C6.92391536 28.28499623 7.02491071 30.4549791 7.125 32.625 C8.115 32.955 9.105 33.285 10.125 33.625 C10.57876195 40.09110772 9.74853082 43.24460575 6.125 48.625 C4.40555699 50.34444301 2.22084777 49.91845984 -0.125 50 C-4.37905141 49.97790103 -5.50010821 49.90991776 -9 47.25 C-10.875 44.625 -10.875 44.625 -11.875 42.625 C-12.68904297 43.25728516 -12.68904297 43.25728516 -13.51953125 43.90234375 C-14.23496094 44.45019531 -14.95039063 44.99804688 -15.6875 45.5625 C-16.39519531 46.10777344 -17.10289062 46.65304688 -17.83203125 47.21484375 C-23.10821643 50.85672301 -29.73972906 50.15109207 -35.875 49.625 C-41.30353449 47.96417214 -44.64729763 44.08682386 -47.875 39.625 C-49.46435702 34.85692894 -49.93009789 30.12045974 -47.93359375 25.3984375 C-44.17640834 19.1089798 -40.01392194 15.56140141 -32.875 13.625 C-30.11805117 13.37822223 -27.3908382 13.38937644 -24.625 13.4375 C-23.90570313 13.43814453 -23.18640625 13.43878906 -22.4453125 13.43945312 C-17.15696429 13.48401786 -17.15696429 13.48401786 -14.875 14.625 C-15.99354586 10.89885847 -15.99354586 10.89885847 -18.875 8.625 C-26.23571665 7.77622171 -31.3824104 9.31895744 -37.875 12.625 C-38.865 12.955 -39.855 13.285 -40.875 13.625 C-41.74346831 11.88205322 -42.59430627 10.13031337 -43.4375 8.375 C-43.91316406 7.40046875 -44.38882813 6.4259375 -44.87890625 5.421875 C-45.875 2.625 -45.875 2.625 -45.90234375 0.43359375 C-43.40910952 -3.95563609 -36.42656418 -4.9845336 -31.875 -6.375 C-20.77064115 -8.94966995 -8.88998983 -7.34390464 0 0 Z M-27.875 26.625 C-29.23118499 27.75034105 -29.23118499 27.75034105 -28.9375 30.6875 C-28.916875 31.656875 -28.89625 32.62625 -28.875 33.625 C-25.81070224 35.15714888 -23.2584358 34.85438548 -19.875 34.625 C-16.89158383 33.68650487 -16.89158383 33.68650487 -14.875 31.625 C-14.45753392 28.49864791 -14.45753392 28.49864791 -14.875 25.625 C-21.56941894 24.43437124 -21.56941894 24.43437124 -27.875 26.625 Z " fill="#126997" transform="translate(149.875,90.375)"/>
<path d="M0 0 C10.89 0 21.78 0 33 0 C38.3125 9.6875 38.3125 9.6875 39.9699707 12.71362305 C40.40913818 13.51324463 40.84830566 14.31286621 41.30078125 15.13671875 C41.74591064 15.94842529 42.19104004 16.76013184 42.6496582 17.59643555 C44.052906 20.09417096 45.51487683 22.55021402 47 25 C47.58007812 24.03320312 48.16015625 23.06640625 48.7578125 22.0703125 C53.4453125 14.2578125 53.4453125 14.2578125 54.72509766 12.22900391 C56.08505315 9.97593114 56.08505315 9.97593114 57.06787109 7.28271484 C58.42196822 4.21215657 59.50333783 2.2618524 62 0 C67.50110666 -1.25569579 72.77592088 -0.94692579 78.375 -0.625 C79.8891765 -0.57479736 81.40351231 -0.52917714 82.91796875 -0.48828125 C86.61530676 -0.37848286 90.30664018 -0.20620889 94 0 C92.39676615 4.14209086 90.42618604 7.92188903 88.1875 11.75 C87.51369696 12.9110953 86.84053043 14.0725602 86.16796875 15.234375 C85.65435791 16.12092773 85.65435791 16.12092773 85.13037109 17.02539062 C83.04852394 20.66210333 81.02583028 24.33187295 79 28 C76.78776614 28.01275345 74.5755246 28.02417082 72.36328125 28.03515625 C71.31556801 28.04102501 71.31556801 28.04102501 70.24668884 28.04701233 C66.33856688 28.06481913 62.43234021 28.05873538 58.52441406 28.01318359 C48.10773018 27.9015359 48.10773018 27.9015359 37.71459961 28.50920105 C21.74607754 29.98724987 21.74607754 29.98724987 15 27 C7.70435156 19.99945941 3.45686154 10.36804873 0 1 C0 0.67 0 0.34 0 0 Z " fill="#6EB9D8" transform="translate(164,70)"/>
<path d="M0 0 C1.29292969 -0.00257812 2.58585937 -0.00515625 3.91796875 -0.0078125 C4.59263184 -0.00362305 5.26729492 0.00056641 5.96240234 0.00488281 C8.02341157 0.0155843 10.08354919 0.00498557 12.14453125 -0.0078125 C13.43746094 -0.00523438 14.73039062 -0.00265625 16.0625 0 C17.25423828 0.00225586 18.44597656 0.00451172 19.67382812 0.00683594 C22.53125 0.265625 22.53125 0.265625 24.53125 2.265625 C22.80962361 5.45725199 21.07758715 8.64311734 19.34375 11.828125 C18.86099609 12.72337891 18.37824219 13.61863281 17.88085938 14.54101562 C16.91451611 16.31156402 15.92534416 18.06985103 14.91333008 19.81469727 C13.51753041 22.17944514 13.51753041 22.17944514 12.6081543 24.46459961 C11.46334895 26.78092928 10.71889157 27.85789832 8.53125 29.265625 C3.2376491 30.1278299 -1.95014603 29.92354622 -7.28125 29.703125 C-8.75187943 29.66799051 -10.222589 29.63605518 -11.69335938 29.60742188 C-15.28682772 29.53050412 -18.87728107 29.40984161 -22.46875 29.265625 C-21.64797784 25.60308145 -20.22736549 22.92946657 -18.28125 19.703125 C-15.2889882 14.68523741 -12.46208709 9.60919375 -9.73046875 4.4453125 C-7.06351782 -0.16198973 -5.11617215 0.00968448 0 0 Z " fill="#6FB9D7" transform="translate(171.46875,122.734375)"/>
<path d="M0 0 C10.89 0 21.78 0 33 0 C34.7325 3.135 36.465 6.27 38.25 9.5 C38.78786133 10.47130859 39.32572266 11.44261719 39.87988281 12.44335938 C42.70849786 17.57452971 45.41905538 22.73978907 48 28 C24.03433535 30.75438497 24.03433535 30.75438497 15 27 C7.28297647 20.43258454 3.23161296 10.40912545 0 1 C0 0.67 0 0.34 0 0 Z " fill="#5CACCE" transform="translate(164,70)"/>
<path d="M0 0 C4.56244637 -0.05813173 9.12479724 -0.09364122 13.6875 -0.125 C14.98107422 -0.14175781 16.27464844 -0.15851563 17.60742188 -0.17578125 C18.85458984 -0.18222656 20.10175781 -0.18867187 21.38671875 -0.1953125 C23.10701294 -0.21102295 23.10701294 -0.21102295 24.86206055 -0.22705078 C28.05602598 0.00405385 30.17996027 0.50334985 33 2 C34.69922938 4.32771149 36.1064452 6.5034195 37.5 9 C37.86480469 9.62261719 38.22960937 10.24523437 38.60546875 10.88671875 C41.64065675 16.1370615 44.32898417 21.55759613 47 27 C42.58984615 27.32371265 38.18610257 27.55815776 33.76757812 27.71411133 C32.26895759 27.77913545 30.77115122 27.86761159 29.27539062 27.98071289 C24.25010685 28.3509088 19.87466591 28.39989903 15 27 C11.16023341 23.10172602 9.21738546 19.01255609 7 14 C6.25358785 12.71080881 5.48888325 11.43153995 4.6875 10.17578125 C4.130625 9.23089844 3.57375 8.28601563 3 7.3125 C2.4225 6.33925781 1.845 5.36601563 1.25 4.36328125 C0 2 0 2 0 0 Z " fill="#2E8BB1" transform="translate(180,97)"/>
<path d="M0 0 C4.0198748 3.44432226 5.86760545 7.36398778 8.0625 12.0625 C8.73513164 13.49360389 9.41333805 14.92210363 10.09765625 16.34765625 C10.53863647 17.29137085 10.53863647 17.29137085 10.98852539 18.25415039 C11.92703027 20.07713741 11.92703027 20.07713741 13.55639648 21.41577148 C15 23 15 23 16 28 C5.77 28 -4.46 28 -15 28 C-14.03526252 24.14105007 -12.8450018 21.80705597 -10.8125 18.4375 C-7.80039144 13.38212604 -4.94006138 8.27032863 -2.1640625 3.08203125 C-1 1 -1 1 0 0 Z " fill="#8FD4EC" transform="translate(164,124)"/>
<path d="M0 0 C10.23 0 20.46 0 31 0 C29.32669592 4.1832602 27.43729554 7.94024565 25.1875 11.8125 C24.65455322 12.73409912 24.65455322 12.73409912 24.11083984 13.67431641 C23.07867021 15.45238438 22.04020713 17.22662547 21 19 C20.48308594 19.88816406 19.96617187 20.77632812 19.43359375 21.69140625 C18.35028958 23.49906902 17.18501986 25.25732374 16 27 C15.34 27 14.68 27 14 27 C13.5875 26.15566406 13.175 25.31132813 12.75 24.44140625 C10.93716062 20.87642523 8.99645858 17.40128057 7 13.9375 C6.65710938 13.33873047 6.31421875 12.73996094 5.9609375 12.12304688 C4.42849845 9.45297655 2.87817967 6.80448925 1.25 4.19140625 C0 2 0 2 0 0 Z " fill="#90D4ED" transform="translate(227,70)"/>
<path d="M0 0 C2.35510854 3.00021691 4.27112652 6.09705717 6.13671875 9.421875 C6.71357422 10.44667969 7.29042969 11.47148438 7.88476562 12.52734375 C8.47966797 13.59082031 9.07457031 14.65429688 9.6875 15.75 C10.29400391 16.82894531 10.90050781 17.90789062 11.52539062 19.01953125 C13.01946444 21.67827678 14.51089949 24.33846685 16 27 C12.42525275 28.13916302 9.21460618 28.03150662 5.484375 27.87890625 C4.23398438 27.83056641 2.98359375 27.78222656 1.6953125 27.73242188 C0.39335937 27.67634766 -0.90859375 27.62027344 -2.25 27.5625 C-3.56742188 27.51029297 -4.88484375 27.45808594 -6.2421875 27.40429688 C-9.49503428 27.27465443 -12.74757167 27.13968844 -16 27 C-14.69407208 23.5418132 -13.58534672 21.58534672 -11 19 C-9.96244882 17.01922047 -8.97004121 15.01470098 -8 13 C-7.1778156 11.45235877 -6.34377627 9.91097596 -5.5 8.375 C-5.0978125 7.64023438 -4.695625 6.90546875 -4.28125 6.1484375 C-2.98544069 3.97558652 -1.55282824 1.99520372 0 0 Z " fill="#479EBF" transform="translate(196,70)"/>
<path d="M0 0 C0.33 0 0.66 0 1 0 C1 25.08 1 50.16 1 76 C0.67 76 0.34 76 0 76 C0 50.92 0 25.84 0 0 Z " fill="#176A96" transform="translate(305,85)"/>
<path d="M0 0 C0.33 0 0.66 0 1 0 C1 18.15 1 36.3 1 55 C1.66 55 2.32 55 3 55 C3 55.66 3 56.32 3 57 C2.01 56.67 1.02 56.34 0 56 C0 37.52 0 19.04 0 0 Z " fill="#086C97" transform="translate(94,64)"/>
<path d="M0 0 C0.99 0.66 1.98 1.32 3 2 C2.67 2.99 2.34 3.98 2 5 C1.43152344 4.9278125 0.86304688 4.855625 0.27734375 4.78125 C-4.52364968 4.20416899 -9.16565627 3.89714162 -14 4 C-14.33 3.34 -14.66 2.68 -15 2 C-10.04487015 -0.03287378 -5.30443635 -0.6870508 0 0 Z M-8 1 C-8 1.33 -8 1.66 -8 2 C-4.7 2.33 -1.4 2.66 2 3 C-1.6441774 0.5705484 -3.71241272 0.83820425 -8 1 Z " fill="#106888" transform="translate(272,99)"/>
<path d="M0 0 C1.80078125 1.51953125 1.80078125 1.51953125 3 3 C2.67 3.66 2.34 4.32 2 5 C1.34773438 4.9278125 0.69546875 4.855625 0.0234375 4.78125 C-3.85174616 4.36972607 -7.59830948 3.99282695 -11.5 4.0625 C-14 4 -14 4 -16 2 C-10.85621879 -0.16580262 -5.52229145 -0.88394682 0 0 Z M-9 1 C-9 1.33 -9 1.66 -9 2 C-5.7 2.33 -2.4 2.66 1 3 C-0.76136355 0.81668311 -0.76136355 0.81668311 -2.9453125 0.8046875 C-5.97265625 0.90234375 -5.97265625 0.90234375 -9 1 Z M-13 2 C-9 3 -9 3 -9 3 Z " fill="#136591" transform="translate(131,99)"/>
<path d="M0 0 C0.33 0 0.66 0 1 0 C1.05534912 0.56509277 1.11069824 1.13018555 1.16772461 1.71240234 C1.42024372 4.26702332 1.67879723 6.82099815 1.9375 9.375 C2.02451172 10.26445313 2.11152344 11.15390625 2.20117188 12.0703125 C2.28818359 12.92109375 2.37519531 13.771875 2.46484375 14.6484375 C2.543396 15.43395996 2.62194824 16.21948242 2.70288086 17.02880859 C2.90696298 19.07134803 2.90696298 19.07134803 4 21 C2.68 20.67 1.36 20.34 0 20 C0 13.4 0 6.8 0 0 Z " fill="#0C496B" transform="translate(298,100)"/>
<path d="M0 0 C10.56 0 21.12 0 32 0 C32 0.33 32 0.66 32 1 C21.44 1 10.88 1 0 1 C0 0.67 0 0.34 0 0 Z " fill="#13736D" transform="translate(211,153)"/>
<path d="M0 0 C10.56 0 21.12 0 32 0 C32 0.33 32 0.66 32 1 C21.44 1 10.88 1 0 1 C0 0.67 0 0.34 0 0 Z " fill="#93EFEE" transform="translate(149,153)"/>
<path d="M0 0 C10.56 0 21.12 0 32 0 C32 0.33 32 0.66 32 1 C21.44 1 10.88 1 0 1 C0 0.67 0 0.34 0 0 Z " fill="#8FCCCF" transform="translate(226,68)"/>
<path d="M0 0 C10.56 0 21.12 0 32 0 C32 0.33 32 0.66 32 1 C21.44 1 10.88 1 0 1 C0 0.67 0 0.34 0 0 Z " fill="#60A0BC" transform="translate(164,68)"/>
<path d="M0 0 C9.57 0 19.14 0 29 0 C29 0.33 29 0.66 29 1 C20.09 1 11.18 1 2 1 C1.67 1.66 1.34 2.32 1 3 C0.67 2.01 0.34 1.02 0 0 Z " fill="#71AEC9" transform="translate(214,99)"/>
<path d="M0 0 C-9.57 0 -19.14 0 -29 0 C-29 -0.33 -29 -0.66 -29 -1 C-24.54234428 -1.22506224 -20.08394312 -1.4272243 -15.625 -1.625 C-14.35398438 -1.68945312 -13.08296875 -1.75390625 -11.7734375 -1.8203125 C-10.56171875 -1.871875 -9.35 -1.9234375 -8.1015625 -1.9765625 C-6.42054443 -2.05511475 -6.42054443 -2.05511475 -4.70556641 -2.13525391 C-2 -2 -2 -2 0 0 Z " fill="#79BDF1" transform="translate(193,122)"/>
<path d="M0 0 C2.48704156 7.46112468 1.02392389 16.32057083 0 24 C-0.33 24 -0.66 24 -1 24 C-1.22297226 21.12546578 -1.42878171 18.2513818 -1.625 15.375 C-1.68945312 14.56675781 -1.75390625 13.75851563 -1.8203125 12.92578125 C-2.13273892 8.12222508 -1.92020113 4.52932939 0 0 Z " fill="#0C6D91" transform="translate(100,115)"/>
<path d="M0 0 C0 0.33 0 0.66 0 1 C-0.81082031 0.98839844 -1.62164062 0.97679688 -2.45703125 0.96484375 C-9.70566174 0.90577458 -16.79632201 1.19157121 -24 2 C-17.48464344 -2.34357104 -7.43624484 -1.98299862 0 0 Z " fill="#1C6995" transform="translate(280,82)"/>
<path d="M0 0 C2 2 2 2 2.13525391 4.33837891 C2.08288574 5.29147949 2.03051758 6.24458008 1.9765625 7.2265625 C1.925 8.2578125 1.8734375 9.2890625 1.8203125 10.3515625 C1.75585938 11.43179688 1.69140625 12.51203125 1.625 13.625 C1.56828125 14.71296875 1.5115625 15.8009375 1.453125 16.921875 C1.3113698 19.61522387 1.15993358 22.3076793 1 25 C0.67 25 0.34 25 0 25 C0 16.75 0 8.5 0 0 Z " fill="#0E4578" transform="translate(329,136)"/>
<path d="M0 0 C0.33 0 0.66 0 1 0 C1.93838047 6.89836454 2.13645572 12.33928512 0 19 C-1.27603607 15.17189179 -0.86283987 11.76524893 -0.5625 7.8125 C-0.51029297 7.06291016 -0.45808594 6.31332031 -0.40429688 5.54101562 C-0.27486216 3.69362918 -0.13813482 1.84675629 0 0 Z " fill="#0B4E83" transform="translate(368,104)"/>
<path d="M0 0 C1.27603607 3.82810821 0.86283987 7.23475107 0.5625 11.1875 C0.51029297 11.93708984 0.45808594 12.68667969 0.40429688 13.45898438 C0.27486216 15.30637082 0.13813482 17.15324371 0 19 C-0.33 19 -0.66 19 -1 19 C-1.93838047 12.10163546 -2.13645572 6.66071488 0 0 Z " fill="#125D82" transform="translate(32,101)"/>
<path d="M0 0 C0.33 0 0.66 0 1 0 C1 7.92 1 15.84 1 24 C-1 22 -1 22 -1.13525391 19.75341797 C-1.08288574 18.84221191 -1.03051758 17.93100586 -0.9765625 16.9921875 C-0.925 16.00605469 -0.8734375 15.01992187 -0.8203125 14.00390625 C-0.75585938 12.97136719 -0.69140625 11.93882813 -0.625 10.875 C-0.56828125 9.83472656 -0.5115625 8.79445313 -0.453125 7.72265625 C-0.31138791 5.14776582 -0.15995446 2.5738126 0 0 Z " fill="#12769A" transform="translate(70,64)"/>
<path d="M0 0 C0 0.33 0 0.66 0 1 C-6.6 1 -13.2 1 -20 1 C-20 0.67 -20 0.34 -20 0 C-13.64662215 -1.69423409 -6.35337785 -1.69423409 0 0 Z " fill="#13618D" transform="translate(138,82)"/>
<path d="M0 0 C6.93 0 13.86 0 21 0 C21 0.33 21 0.66 21 1 C14.07 1 7.14 1 0 1 C0 0.67 0 0.34 0 0 Z " fill="#01577C" transform="translate(307,162)"/>
<path d="M0 0 C0.33 0 0.66 0 1 0 C1 5.94 1 11.88 1 18 C1.66 18.33 2.32 18.66 3 19 C2.01 19 1.02 19 0 19 C0 12.73 0 6.46 0 0 Z " fill="#14697F" transform="translate(157,104)"/>
<path d="M0 0 C2.51912388 0.33588318 3.67196119 0.57354954 5.25 2.625 C6.27344414 5.86590645 6.24563314 8.62254427 6 12 C5.01 13.485 5.01 13.485 4 15 C4.02320313 14.39671875 4.04640625 13.7934375 4.0703125 13.171875 C4.08835937 12.37265625 4.10640625 11.5734375 4.125 10.75 C4.14820313 9.96109375 4.17140625 9.1721875 4.1953125 8.359375 C3.8883424 4.65117616 2.60271414 2.60271414 0 0 Z " fill="#126394" transform="translate(339,103)"/>
<path d="M0 0 C6.93 0 13.86 0 21 0 C21 0.33 21 0.66 21 1 C14.07 1 7.14 1 0 1 C0 0.67 0 0.34 0 0 Z " fill="#115E85" transform="translate(72,62)"/>
<path d="M0 0 C0.99 0.33 1.98 0.66 3 1 C3.33 2.98 3.66 4.96 4 7 C3.34 7 2.68 7 2 7 C2 6.34 2 5.68 2 5 C1.34 5 0.68 5 0 5 C0 3.35 0 1.7 0 0 Z " fill="#126692" transform="translate(232,135)"/>
<path d="M0 0 C-0.64066406 -0.01160156 -1.28132813 -0.02320312 -1.94140625 -0.03515625 C-7.08653222 -0.08883119 -11.93024924 0.11830422 -17 1 C-12.45580705 -3.54419295 -5.35001127 -2.96831766 0 0 Z " fill="#135E8D" transform="translate(349,83)"/>
<path d="M0 0 C0.66 0.33 1.32 0.66 2 1 C1.67 2.32 1.34 3.64 1 5 C-0.32 5.33 -1.64 5.66 -3 6 C-1.125 1.125 -1.125 1.125 0 0 Z " fill="#7ACDEA" transform="translate(158,135)"/>
<path d="M0 0 C0.33 0 0.66 0 1 0 C1 5.61 1 11.22 1 17 C0.67 17 0.34 17 0 17 C0 11.39 0 5.78 0 0 Z " fill="#03719B" transform="translate(303,122)"/>
<path d="M0 0 C5.28 0 10.56 0 16 0 C16 0.33 16 0.66 16 1 C10.72 1 5.44 1 0 1 C0 0.67 0 0.34 0 0 Z " fill="#0908C2" transform="translate(308,82)"/>
<path d="M0 0 C0.99 0.66 1.98 1.32 3 2 C-1.29 2 -5.58 2 -10 2 C-6.31282562 -0.45811625 -4.35654296 -0.31118164 0 0 Z " fill="#10537D" transform="translate(60,81)"/>
<path d="M0 0 C0.33 1.32 0.66 2.64 1 4 C3.31 4.33 5.62 4.66 8 5 C8 5.33 8 5.66 8 6 C5.36 6 2.72 6 0 6 C-0.38218767 4.34385343 -0.71395102 2.67542976 -1 1 C-0.67 0.67 -0.34 0.34 0 0 Z " fill="#0C5A85" transform="translate(264,118)"/>
<path d="M0 0 C1.17571451 3.67410785 1.07366746 7.16929183 1 11 C-1.78637633 6.8204355 -0.79562512 4.85331323 0 0 Z " fill="#115D85" transform="translate(241,117)"/>
<path d="M0 0 C2.97 0 5.94 0 9 0 C8.34 0.66 7.68 1.32 7 2 C3.375 1.625 3.375 1.625 0 1 C0 0.67 0 0.34 0 0 Z " fill="#105377" transform="translate(59,120)"/>
<path d="M0 0 C2.64 0 5.28 0 8 0 C7.34 0.66 6.68 1.32 6 2 C2.875 1.625 2.875 1.625 0 1 C0 0.67 0 0.34 0 0 Z " fill="#185A80" transform="translate(333,120)"/>
<path d="M0 0 C0.33 0 0.66 0 1 0 C1 3.96 1 7.92 1 12 C0.67 12 0.34 12 0 12 C0 8.04 0 4.08 0 0 Z " fill="#10648B" transform="translate(70,107)"/>
<path d="M0 0 C0.33 0 0.66 0 1 0 C1 3.96 1 7.92 1 12 C0.67 12 0.34 12 0 12 C0 8.04 0 4.08 0 0 Z " fill="#104D74" transform="translate(329,105)"/>
<path d="M0 0 C4.455 0.99 4.455 0.99 9 2 C9 2.33 9 2.66 9 3 C6.1875 3.1875 6.1875 3.1875 3 3 C2.01 2.01 1.02 1.02 0 0 Z " fill="#17618A" transform="translate(251,139)"/>
<path d="M0 0 C-3.4352048 2.29013653 -4.985331 2.17842973 -9 2 C-9 1.67 -9 1.34 -9 1 C-2.25 -1.125 -2.25 -1.125 0 0 Z " fill="#1A638C" transform="translate(273,140)"/>
<path d="M0 0 C2.97 0.33 5.94 0.66 9 1 C9 1.33 9 1.66 9 2 C5.625 2.125 5.625 2.125 2 2 C1.34 1.34 0.68 0.68 0 0 Z " fill="#10568A" transform="translate(48,140)"/>
<path d="M0 0 C0.66 0.66 1.32 1.32 2 2 C0.02 2.66 -1.96 3.32 -4 4 C-2.68 2.68 -1.36 1.36 0 0 Z " fill="#055890" transform="translate(112,103)"/>
<path d="M0 0 C1.32 0.33 2.64 0.66 4 1 C2.68 1.99 1.36 2.98 0 4 C0 2.68 0 1.36 0 0 Z " fill="#0B5775" transform="translate(326,85)"/>
<path d="M0 0 C2.31 0.33 4.62 0.66 7 1 C7 1.33 7 1.66 7 2 C5.02 2 3.04 2 1 2 C0.67 1.34 0.34 0.68 0 0 Z " fill="#10466F" transform="translate(142,140)"/>
<path d="M0 0 C0.33 0.66 0.66 1.32 1 2 C0.01 3.32 -0.98 4.64 -2 6 C-1.125 1.125 -1.125 1.125 0 0 Z " fill="#094F76" transform="translate(35,94)"/>
<path d="M0 0 C2.31 0 4.62 0 7 0 C7 0.33 7 0.66 7 1 C4.69 1 2.38 1 0 1 C0 0.67 0 0.34 0 0 Z " fill="#165280" transform="translate(294,141)"/>
<path d="M0 0 C2.31 0 4.62 0 7 0 C7 0.33 7 0.66 7 1 C4.69 1 2.38 1 0 1 C0 0.67 0 0.34 0 0 Z " fill="#18617C" transform="translate(90,141)"/>
<path d="M0 0 C1.485 0.99 1.485 0.99 3 2 C2.67 2.66 2.34 3.32 2 4 C1.01 3.01 0.02 2.02 -1 1 C-0.67 0.67 -0.34 0.34 0 0 Z " fill="#125E77" transform="translate(278,134)"/>
<path d="M0 0 C2.31 0 4.62 0 7 0 C7 0.33 7 0.66 7 1 C4.69 1 2.38 1 0 1 C0 0.67 0 0.34 0 0 Z " fill="#106796" transform="translate(123,123)"/>
<path d="M0 0 C0.99 0 1.98 0 3 0 C3 1.65 3 3.3 3 5 C2.87625 4.360625 2.7525 3.72125 2.625 3.0625 C2.315625 2.0415625 2.315625 2.0415625 2 1 C1.34 0.67 0.68 0.34 0 0 Z " fill="#217997" transform="translate(272,117)"/>
<path d="M0 0 C1.32 0 2.64 0 4 0 C3.67 1.32 3.34 2.64 3 4 C3 3.01 3 2.02 3 1 C2.01 0.67 1.02 0.34 0 0 Z " fill="#0D617E" transform="translate(130,117)"/>
<path d="M0 0 C0.33 0 0.66 0 1 0 C1 2.31 1 4.62 1 7 C0.67 7 0.34 7 0 7 C0 4.69 0 2.38 0 0 Z " fill="#195F83" transform="translate(55,109)"/>
<path d="M0 0 C0.66 0 1.32 0 2 0 C2 0.66 2 1.32 2 2 C0.68 2.33 -0.64 2.66 -2 3 C-1.34 2.01 -0.68 1.02 0 0 Z " fill="#066EA7" transform="translate(253,103)"/>
<path d="M0 0 C1.98 0 3.96 0 6 0 C6 0.33 6 0.66 6 1 C4.02 1 2.04 1 0 1 C0 0.67 0 0.34 0 0 Z " fill="#1C5C80" transform="translate(345,141)"/>
<path d="M0 0 C1.98 0 3.96 0 6 0 C6 0.33 6 0.66 6 1 C4.02 1 2.04 1 0 1 C0 0.67 0 0.34 0 0 Z " fill="#185B81" transform="translate(336,141)"/>
<path d="M0 0 C1.98 0 3.96 0 6 0 C6 0.33 6 0.66 6 1 C4.02 1 2.04 1 0 1 C0 0.67 0 0.34 0 0 Z " fill="#24688F" transform="translate(122,141)"/>
<path d="M0 0 C1.98 0 3.96 0 6 0 C6 0.33 6 0.66 6 1 C4.02 1 2.04 1 0 1 C0 0.67 0 0.34 0 0 Z " fill="#205C81" transform="translate(113,141)"/>
<path d="M0 0 C1.98 0 3.96 0 6 0 C6 0.33 6 0.66 6 1 C4.02 1 2.04 1 0 1 C0 0.67 0 0.34 0 0 Z " fill="#155877" transform="translate(60,141)"/>
<path d="M0 0 C0 0.99 0 1.98 0 3 C-0.99 3.495 -0.99 3.495 -2 4 C-1.34 2.68 -0.68 1.36 0 0 Z " fill="#025A77" transform="translate(245,110)"/>
<path d="M0 0 C0.66 0.33 1.32 0.66 2 1 C0.02 1.99 0.02 1.99 -2 3 C-1.34 2.01 -0.68 1.02 0 0 Z " fill="#0F426E" transform="translate(43,85)"/>
<path d="M0 0 C1.65 0 3.3 0 5 0 C5 0.33 5 0.66 5 1 C3.35 1 1.7 1 0 1 C0 0.67 0 0.34 0 0 Z " fill="#377EB2" transform="translate(285,141)"/>
<path d="M0 0 C1.65 0 3.3 0 5 0 C5 0.33 5 0.66 5 1 C3.35 1 1.7 1 0 1 C0 0.67 0 0.34 0 0 Z " fill="#216FA2" transform="translate(81,141)"/>
<path d="M0 0 C0.66 0.33 1.32 0.66 2 1 C0.68 1.33 -0.64 1.66 -2 2 C-1.34 1.34 -0.68 0.68 0 0 Z " fill="#0247A4" transform="translate(68,139)"/>
<path d="M0 0 C0.99 0.99 1.98 1.98 3 3 C2.01 2.67 1.02 2.34 0 2 C0 1.34 0 0.68 0 0 Z " fill="#195BB2" transform="translate(104,134)"/>
<path d="M0 0 C0.33 0 0.66 0 1 0 C1 1.65 1 3.3 1 5 C0.67 5 0.34 5 0 5 C0 3.35 0 1.7 0 0 Z " fill="#1042A7" transform="translate(122,118)"/>
<path d="M0 0 C0.99 0.99 1.98 1.98 3 3 C2.01 2.67 1.02 2.34 0 2 C0 1.34 0 0.68 0 0 Z " fill="#08636D" transform="translate(56,117)"/>
<path d="M0 0 C0.99 0.33 1.98 0.66 3 1 C2.67 1.66 2.34 2.32 2 3 C1.34 2.01 0.68 1.02 0 0 Z " fill="#0578A3" transform="translate(67,104)"/>
<path d="M0 0 C1.65 0 3.3 0 5 0 C5 0.33 5 0.66 5 1 C3.35 1 1.7 1 0 1 C0 0.67 0 0.34 0 0 Z " fill="#096095" transform="translate(334,102)"/>
<path d="M0 0 C1.98 0.99 1.98 0.99 4 2 C2.68 1.67 1.36 1.34 0 1 C0 0.67 0 0.34 0 0 Z " fill="#0C638F" transform="translate(113,102)"/>
<path d="M0 0 C0.33 0 0.66 0 1 0 C1 1.65 1 3.3 1 5 C0.67 5 0.34 5 0 5 C0 3.35 0 1.7 0 0 Z " fill="#0A6596" transform="translate(156,99)"/>
<path d="M0 0 C0.66 1.32 1.32 2.64 2 4 C1.34 3.67 0.68 3.34 0 3 C0 2.01 0 1.02 0 0 Z " fill="#38729B" transform="translate(178,97)"/>
<path d="M0 0 C0.99 0.495 0.99 0.495 2 1 C1.67 1.99 1.34 2.98 1 4 C0.67 2.68 0.34 1.36 0 0 Z " fill="#125D8C" transform="translate(154,94)"/>
<path d="M0 0 C0.99 0.33 1.98 0.66 3 1 C1.68 1.33 0.36 1.66 -1 2 C-0.67 1.34 -0.34 0.68 0 0 Z " fill="#0E5A75" transform="translate(108,85)"/>
<path d="M0 0 C0.33 0.66 0.66 1.32 1 2 C0.34 2.66 -0.32 3.32 -1 4 C-0.67 2.68 -0.34 1.36 0 0 Z " fill="#7FC9DD" transform="translate(219,78)"/>
<path d="M0 0 C0.99 0.495 0.99 0.495 2 1 C1.67 1.99 1.34 2.98 1 4 C0.67 2.68 0.34 1.36 0 0 Z " fill="#448393" transform="translate(199,72)"/>
<path d="M0 0 C0.33 0.99 0.66 1.98 1 3 C0.01 3.495 0.01 3.495 -1 4 C-0.67 2.68 -0.34 1.36 0 0 Z " fill="#B5DCEA" transform="translate(259,70)"/>
<path d="M0 0 C0 3 0 3 0 3 Z " fill="#79AEBF" transform="translate(184,147)"/>
<path d="M0 0 C0 3 0 3 0 3 Z " fill="#89BFCC" transform="translate(150,144)"/>
<path d="M0 0 C0.99 0.495 0.99 0.495 2 1 C1.67 1.66 1.34 2.32 1 3 C0.67 2.01 0.34 1.02 0 0 Z " fill="#18687E" transform="translate(204,143)"/>
<path d="M0 0 C0 3 0 3 0 3 Z " fill="#7DBDD5" transform="translate(188,140)"/>
<path d="M0 0 C0.99 0.33 1.98 0.66 3 1 C2.01 1 1.02 1 0 1 C0 0.67 0 0.34 0 0 Z " fill="#00589E" transform="translate(282,139)"/>
<path d="M0 0 C0.99 0.495 0.99 0.495 2 1 C1.67 1.66 1.34 2.32 1 3 C0.67 2.01 0.34 1.02 0 0 Z " fill="#145476" transform="translate(237,138)"/>
<path d="M0 0 C0.99 0.33 1.98 0.66 3 1 C2.01 1 1.02 1 0 1 C0 0.67 0 0.34 0 0 Z " fill="#046C90" transform="translate(78,139)"/>
<path d="M0 0 C0.99 0.33 1.98 0.66 3 1 C2.01 1 1.02 1 0 1 C0 0.67 0 0.34 0 0 Z " fill="#10396F" transform="translate(248,137)"/>
<path d="M0 0 C0.99 0.495 0.99 0.495 2 1 C1.67 1.66 1.34 2.32 1 3 C0.67 2.01 0.34 1.02 0 0 Z " fill="#1F5B82" transform="translate(199,134)"/>
<path d="M0 0 C0 3 0 3 0 3 Z " fill="#225F89" transform="translate(362,131)"/>
<path d="M0 0 C0.99 0.495 0.99 0.495 2 1 C1.67 1.66 1.34 2.32 1 3 C0.67 2.01 0.34 1.02 0 0 Z " fill="#239DA9" transform="translate(243,131)"/>
<path d="M0 0 C0.99 0.495 0.99 0.495 2 1 C1.67 1.66 1.34 2.32 1 3 C0.67 2.01 0.34 1.02 0 0 Z " fill="#064F8A" transform="translate(233,131)"/>
<path d="M0 0 C0.99 0.495 0.99 0.495 2 1 C1.67 1.66 1.34 2.32 1 3 C0.67 2.01 0.34 1.02 0 0 Z " fill="#125D88" transform="translate(35,128)"/>
<path d="M0 0 C0.99 0.495 0.99 0.495 2 1 C1.67 1.66 1.34 2.32 1 3 C0.67 2.01 0.34 1.02 0 0 Z " fill="#2F6FD5" transform="translate(189,117)"/>
<path d="M0 0 C0.99 0.495 0.99 0.495 2 1 C1.67 1.66 1.34 2.32 1 3 C0.67 2.01 0.34 1.02 0 0 Z " fill="#26668C" transform="translate(222,112)"/>
<path d="M0 0 C0.66 0.33 1.32 0.66 2 1 C1.01 1 0.02 1 -1 1 C-0.67 0.67 -0.34 0.34 0 0 Z " fill="#14546D" transform="translate(249,106)"/>
<path d="M0 0 C0.99 0.495 0.99 0.495 2 1 C1.67 1.66 1.34 2.32 1 3 C0.67 2.01 0.34 1.02 0 0 Z " fill="#448DB3" transform="translate(218,105)"/>
<path d="M0 0 C0.66 0.33 1.32 0.66 2 1 C1.01 1 0.02 1 -1 1 C-0.67 0.67 -0.34 0.34 0 0 Z " fill="#1B6489" transform="translate(331,103)"/>
<path d="M0 0 C0.99 0.33 1.98 0.66 3 1 C2.01 1 1.02 1 0 1 C0 0.67 0 0.34 0 0 Z " fill="#06507C" transform="translate(255,102)"/>
<path d="M0 0 C4 1 4 1 4 1 Z " fill="#126D9C" transform="translate(61,102)"/>
<path d="M0 0 C0 3 0 3 0 3 Z " fill="#5BADCE" transform="translate(245,95)"/>
<path d="M0 0 C0.99 0.495 0.99 0.495 2 1 C1.67 1.66 1.34 2.32 1 3 C0.67 2.01 0.34 1.02 0 0 Z " fill="#105675" transform="translate(363,93)"/>
<path d="M0 0 C0.99 0.495 0.99 0.495 2 1 C1.67 1.66 1.34 2.32 1 3 C0.67 2.01 0.34 1.02 0 0 Z " fill="#7DB1C5" transform="translate(210,91)"/>
<path d="M0 0 C0.99 0.495 0.99 0.495 2 1 C1.67 1.66 1.34 2.32 1 3 C0.67 2.01 0.34 1.02 0 0 Z " fill="#2382AD" transform="translate(152,91)"/>
<path d="M0 0 C0.99 0.495 0.99 0.495 2 1 C1.67 1.66 1.34 2.32 1 3 C0.67 2.01 0.34 1.02 0 0 Z " fill="#70BEE6" transform="translate(174,91)"/>
<path d="M0 0 C0 3 0 3 0 3 Z " fill="#71B9E2" transform="translate(215,85)"/>
<path d="M0 0 C0.99 0.33 1.98 0.66 3 1 C2.01 1 1.02 1 0 1 C0 0.67 0 0.34 0 0 Z " fill="#0C5375" transform="translate(146,86)"/>
<path d="M0 0 C0.99 0.33 1.98 0.66 3 1 C2.01 1 1.02 1 0 1 C0 0.67 0 0.34 0 0 Z " fill="#2B8EAE" transform="translate(354,85)"/>
<path d="M0 0 C0.99 0.33 1.98 0.66 3 1 C2.01 1 1.02 1 0 1 C0 0.67 0 0.34 0 0 Z " fill="#1C86BD" transform="translate(286,85)"/>
<path d="M0 0 C0.99 0.495 0.99 0.495 2 1 C1.67 1.66 1.34 2.32 1 3 C0.67 2.01 0.34 1.02 0 0 Z " fill="#48A9D1" transform="translate(203,79)"/>
<path d="M0 0 C0 3 0 3 0 3 Z " fill="#99D5E8" transform="translate(257,74)"/>
<path d="M0 0 C0.99 0.495 0.99 0.495 2 1 C1.67 1.66 1.34 2.32 1 3 C0.67 2.01 0.34 1.02 0 0 Z " fill="#4289C7" transform="translate(163,72)"/>
<path d="M0 0 C0.66 0 1.32 0 2 0 C1.67 0.66 1.34 1.32 1 2 C0.67 1.34 0.34 0.68 0 0 Z " fill="#076A93" transform="translate(74,135)"/>
<path d="" fill="#0F3034" transform="translate(0,0)"/>
<path d="" fill="#044676" transform="translate(0,0)"/>
<path d="" fill="#2589C8" transform="translate(0,0)"/>
<path d="" fill="#156B8A" transform="translate(0,0)"/>
<path d="M0 0 C0.33 0.66 0.66 1.32 1 2 C0.34 1.67 -0.32 1.34 -1 1 C-0.67 0.67 -0.34 0.34 0 0 Z " fill="#057383" transform="translate(342,118)"/>
<path d="M0 0 C3 1 3 1 3 1 Z " fill="#163D6E" transform="translate(265,117)"/>
<path d="M0 0 C3 1 3 1 3 1 Z " fill="#0E527D" transform="translate(123,117)"/>
<path d="M0 0 C0.99 0.495 0.99 0.495 2 1 C1.01 1.495 1.01 1.495 0 2 C0 1.34 0 0.68 0 0 Z " fill="#0A609C" transform="translate(57,104)"/>
<path d="" fill="#186980" transform="translate(0,0)"/>
<path d="" fill="#11587A" transform="translate(0,0)"/>
<path d="" fill="#286E9D" transform="translate(0,0)"/>
<path d="" fill="#12518A" transform="translate(0,0)"/>
<path d="M0 0 C0.66 0 1.32 0 2 0 C1.67 0.66 1.34 1.32 1 2 C0.67 1.34 0.34 0.68 0 0 Z " fill="#0D3E5F" transform="translate(292,90)"/>
<path d="M0 0 C0.66 0.66 1.32 1.32 2 2 C1.34 2 0.68 2 0 2 C0 1.34 0 0.68 0 0 Z " fill="#538599" transform="translate(251,84)"/>
<path d="M0 0 C3 1 3 1 3 1 Z " fill="#0C4E8E" transform="translate(283,84)"/>
<path d="M0 0 C3 1 3 1 3 1 Z " fill="#206488" transform="translate(253,84)"/>
<path d="M0 0 C3 1 3 1 3 1 Z " fill="#2474AE" transform="translate(111,84)"/>
<path d="M0 0 C3 1 3 1 3 1 Z " fill="#0D8FB9" transform="translate(280,83)"/>
<path d="M0 0 C3 1 3 1 3 1 Z " fill="#025FB3" transform="translate(138,83)"/>
<path d="M0 0 C3 1 3 1 3 1 Z " fill="#126996" transform="translate(115,83)"/>
<path d="M0 0 C3 1 3 1 3 1 Z " fill="#0D4A7D" transform="translate(63,83)"/>
<path d="M0 0 C3 1 3 1 3 1 Z " fill="#094462" transform="translate(47,83)"/>
<path d="" fill="#8DCFEB" transform="translate(0,0)"/>
<path d="" fill="#0A5F83" transform="translate(0,0)"/>
<path d="" fill="#74A1B6" transform="translate(0,0)"/>
<path d="" fill="#136295" transform="translate(0,0)"/>
<path d="" fill="#7FB1C4" transform="translate(0,0)"/>
<path d="" fill="#0B6B8E" transform="translate(0,0)"/>
<path d="" fill="#75ABB3" transform="translate(0,0)"/>
<path d="" fill="#057185" transform="translate(0,0)"/>
<path d="" fill="#AAD2E1" transform="translate(0,0)"/>
<path d="" fill="#94E1E4" transform="translate(0,0)"/>
<path d="" fill="#166A8B" transform="translate(0,0)"/>
<path d="" fill="#18B5BA" transform="translate(0,0)"/>
<path d="M0 0 C2 1 2 1 2 1 Z " fill="#006987" transform="translate(351,140)"/>
<path d="M0 0 C2 1 2 1 2 1 Z " fill="#057073" transform="translate(334,140)"/>
<path d="M0 0 C2 1 2 1 2 1 Z " fill="#0E5E98" transform="translate(128,140)"/>
<path d="M0 0 C2 1 2 1 2 1 Z " fill="#0B5B94" transform="translate(111,140)"/>
<path d="M0 0 C2 1 2 1 2 1 Z " fill="#126073" transform="translate(353,139)"/>
<path d="M0 0 C2 1 2 1 2 1 Z " fill="#104F82" transform="translate(332,139)"/>
<path d="" fill="#76B0D9" transform="translate(0,0)"/>
<path d="M0 0 C2 1 2 1 2 1 Z " fill="#155C88" transform="translate(130,139)"/>
<path d="M0 0 C2 1 2 1 2 1 Z " fill="#0E6592" transform="translate(109,139)"/>
<path d="M0 0 C2 1 2 1 2 1 Z " fill="#19669B" transform="translate(46,139)"/>
<path d="M0 0 C2 1 2 1 2 1 Z " fill="#097694" transform="translate(273,138)"/>
<path d="" fill="#2173AD" transform="translate(0,0)"/>
<path d="M0 0 C2 1 2 1 2 1 Z " fill="#3CA6C4" transform="translate(70,138)"/>
<path d="" fill="#0C4971" transform="translate(0,0)"/>
<path d="" fill="#71D1E5" transform="translate(0,0)"/>
<path d="M0 0 C2 1 2 1 2 1 Z " fill="#044885" transform="translate(133,137)"/>
<path d="M0 0 C2 1 2 1 2 1 Z " fill="#0E7180" transform="translate(43,137)"/>
<path d="M0 0 C2 1 2 1 2 1 Z " fill="#086D92" transform="translate(357,136)"/>
<path d="" fill="#0A487C" transform="translate(0,0)"/>
<path d="" fill="#97D7EB" transform="translate(0,0)"/>
<path d="" fill="#1C7C90" transform="translate(0,0)"/>
<path d="" fill="#75ABC1" transform="translate(0,0)"/>
<path d="" fill="#106894" transform="translate(0,0)"/>
<path d="" fill="#0D6F8D" transform="translate(0,0)"/>
<path d="" fill="#006C8B" transform="translate(0,0)"/>
<path d="" fill="#6A97C8" transform="translate(0,0)"/>
<path d="" fill="#116292" transform="translate(0,0)"/>
<path d="" fill="#4586AF" transform="translate(0,0)"/>
<path d="" fill="#114E8F" transform="translate(0,0)"/>
<path d="" fill="#0B6187" transform="translate(0,0)"/>
<path d="" fill="#0B3E79" transform="translate(0,0)"/>
<path d="" fill="#649FB2" transform="translate(0,0)"/>
<path d="" fill="#15607C" transform="translate(0,0)"/>
<path d="" fill="#206EA3" transform="translate(0,0)"/>
<path d="M0 0 C2 1 2 1 2 1 Z " fill="#1E6982" transform="translate(272,122)"/>
<path d="M0 0 C2 1 2 1 2 1 Z " fill="#194B85" transform="translate(130,122)"/>
<path d="" fill="#1782A4" transform="translate(0,0)"/>
<path d="M0 0 C2 1 2 1 2 1 Z " fill="#0A698B" transform="translate(68,119)"/>
<path d="" fill="#1D7D94" transform="translate(0,0)"/>
<path d="" fill="#106988" transform="translate(0,0)"/>
<path d="" fill="#106FA0" transform="translate(0,0)"/>
<path d="" fill="#57A1D2" transform="translate(0,0)"/>
<path d="" fill="#0C6696" transform="translate(0,0)"/>
<path d="" fill="#408BAE" transform="translate(0,0)"/>
<path d="" fill="#1B4668" transform="translate(0,0)"/>
<path d="" fill="#4FABC9" transform="translate(0,0)"/>
<path d="" fill="#3C8AA4" transform="translate(0,0)"/>
<path d="" fill="#3481B9" transform="translate(0,0)"/>
<path d="" fill="#0D627C" transform="translate(0,0)"/>
<path d="" fill="#3389A7" transform="translate(0,0)"/>
<path d="" fill="#268589" transform="translate(0,0)"/>
<path d="" fill="#115B96" transform="translate(0,0)"/>
<path d="" fill="#3B8DAF" transform="translate(0,0)"/>
<path d="" fill="#136D79" transform="translate(0,0)"/>
<path d="" fill="#077196" transform="translate(0,0)"/>
<path d="" fill="#0F43C1" transform="translate(0,0)"/>
<path d="" fill="#19649A" transform="translate(0,0)"/>
<path d="" fill="#3A81B2" transform="translate(0,0)"/>
<path d="" fill="#02406E" transform="translate(0,0)"/>
<path d="" fill="#1B688B" transform="translate(0,0)"/>
<path d="" fill="#025D9A" transform="translate(0,0)"/>
<path d="" fill="#78B5CD" transform="translate(0,0)"/>
<path d="" fill="#289DC4" transform="translate(0,0)"/>
<path d="" fill="#17ACC5" transform="translate(0,0)"/>
<path d="" fill="#78B7D5" transform="translate(0,0)"/>
<path d="" fill="#7CBFD9" transform="translate(0,0)"/>
<path d="" fill="#40D7DF" transform="translate(0,0)"/>
<path d="" fill="#7CACB8" transform="translate(0,0)"/>
<path d="" fill="#2D6775" transform="translate(0,0)"/>
<path d="" fill="#519FBD" transform="translate(0,0)"/>
<path d="M0 0 C2 1 2 1 2 1 Z " fill="#027389" transform="translate(105,87)"/>
<path d="" fill="#4DB7C7" transform="translate(0,0)"/>
<path d="" fill="#2D607C" transform="translate(0,0)"/>
<path d="M0 0 C2 1 2 1 2 1 Z " fill="#105E8E" transform="translate(144,85)"/>
<path d="M0 0 C2 1 2 1 2 1 Z " fill="#3985B2" transform="translate(352,84)"/>
<path d="M0 0 C2 1 2 1 2 1 Z " fill="#14587B" transform="translate(330,84)"/>
<path d="" fill="#ACDBED" transform="translate(0,0)"/>
<path d="M0 0 C2 1 2 1 2 1 Z " fill="#265E82" transform="translate(142,84)"/>
<path d="M0 0 C2 1 2 1 2 1 Z " fill="#08516F" transform="translate(66,84)"/>
<path d="M0 0 C2 1 2 1 2 1 Z " fill="#043171" transform="translate(45,84)"/>
<path d="M0 0 C2 1 2 1 2 1 Z " fill="#0969A6" transform="translate(349,83)"/>
<path d="" fill="#4CA8CE" transform="translate(0,0)"/>
<path d="" fill="#6AAAC0" transform="translate(0,0)"/>
<path d="" fill="#AAE2F0" transform="translate(0,0)"/>
<path d="" fill="#6CAAC7" transform="translate(0,0)"/>
<path d="" fill="#8EE2E9" transform="translate(0,0)"/>
<path d="" fill="#75CCE0" transform="translate(0,0)"/>
<path d="" fill="#B9F4FC" transform="translate(0,0)"/>
<path d="" fill="#3AD5F0" transform="translate(0,0)"/>
<path d="" fill="#70A0BA" transform="translate(0,0)"/>
<path d="" fill="#64ACBE" transform="translate(0,0)"/>
<path d="" fill="#7BAFCD" transform="translate(0,0)"/>
<path d="" fill="#68AFB4" transform="translate(0,0)"/>
<path d="" fill="#569DC8" transform="translate(0,0)"/>
<path d="" fill="#001D5D" transform="translate(0,0)"/>
<path d="" fill="#1A6594" transform="translate(0,0)"/>
<path d="" fill="#001522" transform="translate(0,0)"/>
<path d="" fill="#5BC9CF" transform="translate(0,0)"/>
<path d="" fill="#000852" transform="translate(0,0)"/>
<path d="" fill="#67B5DA" transform="translate(0,0)"/>
<path d="" fill="#175F9B" transform="translate(0,0)"/>
<path d="" fill="#0B6C8D" transform="translate(0,0)"/>
<path d="" fill="#136592" transform="translate(0,0)"/>
<path d="" fill="#34749C" transform="translate(0,0)"/>
<path d="" fill="#8DCDE7" transform="translate(0,0)"/>
<path d="" fill="#18789C" transform="translate(0,0)"/>
<path d="" fill="#115C87" transform="translate(0,0)"/>
<path d="" fill="#1D5970" transform="translate(0,0)"/>
<path d="" fill="#004981" transform="translate(0,0)"/>
<path d="" fill="#007E7F" transform="translate(0,0)"/>
<path d="" fill="#115C87" transform="translate(0,0)"/>
<path d="" fill="#1182B0" transform="translate(0,0)"/>
<path d="" fill="#136386" transform="translate(0,0)"/>
<path d="" fill="#0C5EB2" transform="translate(0,0)"/>
<path d="" fill="#076F9C" transform="translate(0,0)"/>
<path d="" fill="#166286" transform="translate(0,0)"/>
<path d="" fill="#147EAF" transform="translate(0,0)"/>
<path d="" fill="#0E5E87" transform="translate(0,0)"/>
<path d="" fill="#0D627C" transform="translate(0,0)"/>
<path d="" fill="#0560A8" transform="translate(0,0)"/>
<path d="" fill="#13688D" transform="translate(0,0)"/>
<path d="" fill="#00629A" transform="translate(0,0)"/>
<path d="" fill="#136E8D" transform="translate(0,0)"/>
<path d="" fill="#0C5F85" transform="translate(0,0)"/>
<path d="" fill="#0D4C96" transform="translate(0,0)"/>
<path d="" fill="#046F9A" transform="translate(0,0)"/>
<path d="" fill="#107177" transform="translate(0,0)"/>
<path d="" fill="#126896" transform="translate(0,0)"/>
<path d="" fill="#005F7E" transform="translate(0,0)"/>
<path d="" fill="#1F658F" transform="translate(0,0)"/>
<path d="" fill="#1C668A" transform="translate(0,0)"/>
<path d="" fill="#045FA6" transform="translate(0,0)"/>
<path d="" fill="#006B96" transform="translate(0,0)"/>
<path d="" fill="#14699A" transform="translate(0,0)"/>
<path d="" fill="#206289" transform="translate(0,0)"/>
<path d="" fill="#73AEC1" transform="translate(0,0)"/>
<path d="" fill="#0F6F7E" transform="translate(0,0)"/>
<path d="" fill="#255C83" transform="translate(0,0)"/>
<path d="" fill="#146E81" transform="translate(0,0)"/>
<path d="" fill="#225C84" transform="translate(0,0)"/>
<path d="" fill="#17608C" transform="translate(0,0)"/>
<path d="" fill="#156688" transform="translate(0,0)"/>
<path d="" fill="#317BAB" transform="translate(0,0)"/>
<path d="" fill="#0D698E" transform="translate(0,0)"/>
<path d="" fill="#93C3FF" transform="translate(0,0)"/>
<path d="" fill="#000DAB" transform="translate(0,0)"/>
<path d="" fill="#0010A8" transform="translate(0,0)"/>
<path d="" fill="#0010C5" transform="translate(0,0)"/>
<path d="" fill="#357099" transform="translate(0,0)"/>
<path d="" fill="#166792" transform="translate(0,0)"/>
<path d="" fill="#006991" transform="translate(0,0)"/>
<path d="" fill="#02619E" transform="translate(0,0)"/>
<path d="" fill="#086295" transform="translate(0,0)"/>
<path d="" fill="#0C688D" transform="translate(0,0)"/>
<path d="" fill="#4C88AB" transform="translate(0,0)"/>
<path d="" fill="#02699D" transform="translate(0,0)"/>
<path d="" fill="#2E8EB4" transform="translate(0,0)"/>
<path d="" fill="#0E6492" transform="translate(0,0)"/>
<path d="" fill="#19677F" transform="translate(0,0)"/>
<path d="" fill="#11648A" transform="translate(0,0)"/>
<path d="" fill="#1A6A83" transform="translate(0,0)"/>
<path d="" fill="#0C688B" transform="translate(0,0)"/>
<path d="" fill="#006E9A" transform="translate(0,0)"/>
<path d="" fill="#002852" transform="translate(0,0)"/>
<path d="" fill="#348CAC" transform="translate(0,0)"/>
<path d="" fill="#156A9B" transform="translate(0,0)"/>
<path d="" fill="#176898" transform="translate(0,0)"/>
<path d="" fill="#3D9C93" transform="translate(0,0)"/>
<path d="" fill="#096E94" transform="translate(0,0)"/>
<path d="" fill="#6593AD" transform="translate(0,0)"/>
<path d="" fill="#6AA5D3" transform="translate(0,0)"/>
<path d="" fill="#1A668E" transform="translate(0,0)"/>
<path d="" fill="#126587" transform="translate(0,0)"/>
<path d="" fill="#1389A5" transform="translate(0,0)"/>
<path d="" fill="#0F6789" transform="translate(0,0)"/>
<path d="" fill="#0F6787" transform="translate(0,0)"/>
<path d="" fill="#004D81" transform="translate(0,0)"/>
<path d="" fill="#005481" transform="translate(0,0)"/>
<path d="" fill="#176385" transform="translate(0,0)"/>
<path d="" fill="#196984" transform="translate(0,0)"/>
<path d="" fill="#1A79A6" transform="translate(0,0)"/>
<path d="" fill="#3FEAFF" transform="translate(0,0)"/>
<path d="" fill="#016C88" transform="translate(0,0)"/>
<path d="" fill="#1D6288" transform="translate(0,0)"/>
<path d="" fill="#136985" transform="translate(0,0)"/>
<path d="" fill="#4B93B2" transform="translate(0,0)"/>
<path d="" fill="#036186" transform="translate(0,0)"/>
<path d="" fill="#00768C" transform="translate(0,0)"/>
<path d="" fill="#166D92" transform="translate(0,0)"/>
<path d="" fill="#176079" transform="translate(0,0)"/>
<path d="" fill="#0F668B" transform="translate(0,0)"/>
<path d="" fill="#69BED6" transform="translate(0,0)"/>
<path d="" fill="#007983" transform="translate(0,0)"/>
<path d="" fill="#5DB2BE" transform="translate(0,0)"/>
<path d="" fill="#84B7DF" transform="translate(0,0)"/>
<path d="" fill="#5F8AA6" transform="translate(0,0)"/>
<path d="" fill="#3E80A9" transform="translate(0,0)"/>
<path d="" fill="#33A4B9" transform="translate(0,0)"/>
<path d="" fill="#6CB1D5" transform="translate(0,0)"/>
<path d="" fill="#81C3CF" transform="translate(0,0)"/>
<path d="" fill="#41D9FF" transform="translate(0,0)"/>
<path d="" fill="#EBFFFF" transform="translate(0,0)"/>
<path d="" fill="#94E7FB" transform="translate(0,0)"/>
<path d="" fill="#40E4FA" transform="translate(0,0)"/>
<path d="" fill="#0025B8" transform="translate(0,0)"/>
<path d="" fill="#5CC9D6" transform="translate(0,0)"/>
<path d="" fill="#0013BA" transform="translate(0,0)"/>
</svg>
